REM DIRINDEX 1\2,1\3
REM DIRNAME folder01,folder02,folder03
TITLE ""
FILE "DISC1Track03.mp3" MP3
  TRACK 01 AUDIO
    TITLE "0:"
    INDEX 01 00:00:00
  TRACK 02 AUDIO
    TITLE "3:cjc133_0094"
    INDEX 01 00:00:15
  TRACK 03 AUDIO
    TITLE "0:"
    INDEX 01 00:01:11
  TRACK 04 AUDIO
    TITLE "2:cjc133_0095"
    INDEX 01 00:01:60
  TRACK 05 AUDIO
    TITLE "2:cjc133_0096"
    INDEX 01 00:04:38
  TRACK 06 AUDIO
    TITLE "2:cjc133_0097"
    INDEX 01 00:07:09
  TRACK 07 AUDIO
    TITLE "0:"
    INDEX 01 00:08:58
  TRACK 08 AUDIO
    TITLE "2:cjc133_0098"
    INDEX 01 00:09:34
  TRACK 09 AUDIO
    TITLE "2:cjc133_0099"
    INDEX 01 00:10:31
  TRACK 10 AUDIO
    TITLE "2:cjc133_0100"
    INDEX 01 00:13:00
  TRACK 11 AUDIO
    TITLE "0:"
    INDEX 01 00:14:56
  TRACK 12 AUDIO
    TITLE "2:cjc133_0101"
    INDEX 01 00:15:30
  TRACK 13 AUDIO
    TITLE "2:cjc133_0102"
    INDEX 01 00:16:44
  TRACK 14 AUDIO
    TITLE "2:cjc133_0103"
    INDEX 01 00:19:28
  TRACK 15 AUDIO
    TITLE "0:"
    INDEX 01 00:21:13
  TRACK 16 AUDIO
    TITLE "2:cjc133_0104"
    INDEX 01 00:21:68
  TRACK 17 AUDIO
    TITLE "2:cjc133_0105"
    INDEX 01 00:23:10
  TRACK 18 AUDIO
    TITLE "2:cjc133_0106"
    INDEX 01 00:26:03
  TRACK 19 AUDIO
    TITLE "0:"
    INDEX 01 00:28:02
  TRACK 20 AUDIO
    TITLE "2:cjc133_0107"
    INDEX 01 00:28:51
  TRACK 21 AUDIO
    TITLE "2:cjc133_0108"
    INDEX 01 00:30:38
  TRACK 22 AUDIO
    TITLE "2:cjc133_0109"
    INDEX 01 00:32:47
  TRACK 23 AUDIO
    TITLE "0:"
    INDEX 01 00:33:68
  TRACK 24 AUDIO
    TITLE "2:cjc133_0110"
    INDEX 01 00:34:42
  TRACK 25 AUDIO
    TITLE "2:cjc133_0111"
    INDEX 01 00:36:31
  TRACK 26 AUDIO
    TITLE "2:cjc133_0112"
    INDEX 01 00:38:73
  TRACK 27 AUDIO
    TITLE "0:"
    INDEX 01 00:40:46
  TRACK 28 AUDIO
    TITLE "2:cjc133_0113"
    INDEX 01 00:41:24
  TRACK 29 AUDIO
    TITLE "2:cjc133_0114"
    INDEX 01 00:43:19
  TRACK 30 AUDIO
    TITLE "2:cjc133_0115"
    INDEX 01 00:45:57
  TRACK 31 AUDIO
    TITLE "0:"
    INDEX 01 00:47:27
  TRACK 32 AUDIO
    TITLE "2:cjc133_0116"
    INDEX 01 00:48:02
  TRACK 33 AUDIO
    TITLE "2:cjc133_0117"
    INDEX 01 00:49:53
  TRACK 34 AUDIO
    TITLE "2:cjc133_0118"
    INDEX 01 00:51:69
  TRACK 35 AUDIO
    TITLE "0:"
    INDEX 01 00:53:23
  TRACK 36 AUDIO
    TITLE "2:cjc133_0119"
    INDEX 01 00:53:68
  TRACK 37 AUDIO
    TITLE "2:cjc133_0120"
    INDEX 01 00:54:74
  TRACK 38 AUDIO
    TITLE "2:cjc133_0121"
    INDEX 01 00:57:29
  TRACK 39 AUDIO
    TITLE "0:"
    INDEX 01 00:58:64
  TRACK 40 AUDIO
    TITLE "2:cjc133_0122"
    INDEX 01 00:59:34
  TRACK 41 AUDIO
    TITLE "2:cjc133_0123"
    INDEX 01 01:00:31
  TRACK 42 AUDIO
    TITLE "2:cjc133_0124"
    INDEX 01 01:02:71
  TRACK 43 AUDIO
    TITLE "0:"
    INDEX 01 01:04:37
  TRACK 44 AUDIO
    TITLE "2:cjc133_0125"
    INDEX 01 01:05:15
  TRACK 45 AUDIO
    TITLE "2:cjc133_0126"
    INDEX 01 01:06:28
  TRACK 46 AUDIO
    TITLE "2:cjc133_0127"
    INDEX 01 01:08:52
  TRACK 47 AUDIO
    TITLE "0:"
    INDEX 01 01:10:04
  TRACK 48 AUDIO
    TITLE "2:cjc133_0128"
    INDEX 01 01:10:59
  TRACK 49 AUDIO
    TITLE "2:cjc133_0129"
    INDEX 01 01:12:28
  TRACK 50 AUDIO
    TITLE "2:cjc133_0130"
    INDEX 01 01:14:59
  TRACK 51 AUDIO
    TITLE "0:"
    INDEX 01 01:16:20
  TRACK 52 AUDIO
    TITLE "2:cjc133_0131"
    INDEX 01 01:16:73
  TRACK 53 AUDIO
    TITLE "2:cjc133_0132"
    INDEX 01 01:18:07
  TRACK 54 AUDIO
    TITLE "2:cjc133_0133"
    INDEX 01 01:20:55
  TRACK 55 AUDIO
    TITLE "0:"
    INDEX 01 01:22:31
  TRACK 56 AUDIO
    TITLE "2:cjc133_0134"
    INDEX 01 01:23:11
  TRACK 57 AUDIO
    TITLE "2:cjc133_0135"
    INDEX 01 01:25:57
  TRACK 58 AUDIO
    TITLE "2:cjc133_0136"
    INDEX 01 01:28:69
  TRACK 59 AUDIO
    TITLE "0:"
    INDEX 01 01:31:08
  TRACK 60 AUDIO
    TITLE "2:cjc133_0137"
    INDEX 01 01:31:63
  TRACK 61 AUDIO
    TITLE "2:cjc133_0138"
    INDEX 01 01:33:31
  TRACK 62 AUDIO
    TITLE "2:cjc133_0139"
    INDEX 01 01:36:37
  TRACK 63 AUDIO
    TITLE "0:"
    INDEX 01 01:38:49
